<?xml version="1.0" encoding="UTF-8" standalone="no"?>
<!-- Generator: Adobe Illustrator 25.2.3, SVG Export Plug-In . SVG Version: 6.00 Build 0)  -->

<svg
   version="1.1"
   id="Layer_1"
   x="0px"
   y="0px"
   viewBox="0 0 75 75"
   xml:space="preserve"
   sodipodi:docname="neurips-logo-svg.svg"
   width="75"
   height="75"
   inkscape:version="1.1.1 (1:1.1+202109281949+c3084ef5ed)"
   xmlns:inkscape="http://www.inkscape.org/namespaces/inkscape"
   xmlns:sodipodi="http://sodipodi.sourceforge.net/DTD/sodipodi-0.dtd"
   xmlns="http://www.w3.org/2000/svg"
   xmlns:svg="http://www.w3.org/2000/svg"><defs
   id="defs888" /><sodipodi:namedview
   id="namedview886"
   pagecolor="#ffffff"
   bordercolor="#111111"
   borderopacity="1"
   inkscape:pageshadow="0"
   inkscape:pageopacity="0"
   inkscape:pagecheckerboard="1"
   showgrid="false"
   width="75px"
   inkscape:zoom="1.9052599"
   inkscape:cx="-30.966903"
   inkscape:cy="30.179609"
   inkscape:window-width="1848"
   inkscape:window-height="1053"
   inkscape:window-x="72"
   inkscape:window-y="27"
   inkscape:window-maximized="1"
   inkscape:current-layer="g883" />
<style
   type="text/css"
   id="style873">
	.st0{fill-rule:evenodd;clip-rule:evenodd;fill:#7352A2;}
	.st1{fill-rule:evenodd;clip-rule:evenodd;fill:#9F79B6;}
	.st2{fill:#34383C;}
</style>
<g
   id="g883"
   transform="translate(-6.2924101,-0.69159678)">
	<path
   class="st0"
   d="m 27.216339,12.351601 c 1,1.4 2.7,1.9 3.7,1.2 1,-0.7 1.1,-2.5 0.2,-3.9000001 -1,-1.5 -2.7,-2.1 -3.8,-1.4 -1.1,0.8 -1.1,2.7000001 -0.1,4.1000001 m 14.1,-5.9000001 c 0.4,1.6 1.6,2.7 2.8,2.6 1.1,-0.2 1.8,-1.5 1.5,-3.1 -0.3,-1.6 -1.6,-2.8 -2.8,-2.7 -1.3,0.1 -1.9,1.5 -1.5,3.2 m 13.4,0.4 c -0.2,1.4 0.5,2.8 1.5,3.1 1,0.3000001 1.9,-0.5 2.1,-1.9 0.2,-1.3 -0.4,-2.7 -1.4,-3.1 -1,-0.4 -2,0.5 -2.2,1.9 m 10.4,5.5000001 c -0.4,0.9 -0.3,2.1 0.3,2.7 0.6,0.5 1.4,0.3 1.8,-0.6 0.4,-0.9 0.3,-2.1 -0.2,-2.7 -0.6,-0.6 -1.5,-0.4 -1.9,0.6 m 6.8,6.9 c -0.5,0.5 -0.6,1.4 -0.4,2 0.3,0.6 0.8,0.6 1.3,0.1 0.5,-0.5 0.6,-1.4 0.4,-2 -0.3,-0.5 -0.9,-0.6 -1.3,-0.1 m -45.2,6.8 c 1.2,0.5 2.4,0.1 2.8,-0.9 0.4,-1 -0.2,-2.1 -1.4,-2.7 -1.2,-0.5 -2.5,-0.2 -2.9,0.8 -0.4,1 0.3,2.3 1.5,2.8 m 11,-10.2 c 0.5,1.2 1.7,1.7 2.6,1.4 0.9,-0.4 1.2,-1.6 0.8,-2.8 -0.5,-1.2 -1.6,-1.8 -2.6,-1.5 -1,0.4 -1.3,1.7 -0.8,2.9 m 11.1,-3 c 0.1,1.2 0.8,2.1 1.7,2.2 0.9,0 1.5,-0.9 1.5,-2 0,-1.2 -0.8,-2.2 -1.7,-2.2 -0.9,-0.1 -1.6,0.8 -1.5,2 m 5.5,0.4 c -0.1,1 0.4,2 1.1,2.2 0.7,0.2 1.4,-0.4 1.6,-1.4 0.1,-1 -0.3,-2 -1.1,-2.3 -0.8,-0.2 -1.5,0.4 -1.6,1.5 m 4.7,1.6 c -0.3,0.9 0,1.8 0.7,2.1 0.6,0.3 1.3,-0.1 1.5,-0.9 0.3,-0.8 0,-1.8 -0.6,-2.2 -0.7,-0.3 -1.4,0.1 -1.6,1 m -21.8,9.7 c 0.6,0.8 1.5,1 2.2,0.5 0.7,-0.5 0.8,-1.5 0.2,-2.3 -0.5,-0.8 -1.5,-1.1 -2.2,-0.6 -0.6,0.6 -0.7,1.6 -0.2,2.4 m 7.9,-5 c 0.2,0.9 1,1.5 1.7,1.3 0.7,-0.2 1.2,-1 1,-1.9 -0.2,-0.9 -1,-1.6 -1.7,-1.4 -0.8,0.1 -1.2,1 -1,2 m 8.8,-1.6 c -0.1,0.8 0.3,1.5 0.9,1.6 0.6,0.1 1.1,-0.4 1.2,-1.1 0.1,-0.8 -0.3,-1.5 -0.9,-1.6 -0.6,-0.2 -1.1,0.3 -1.2,1.1 m 20.1,4.1 c -0.3,0.3 -0.4,0.9 -0.3,1.3 0.2,0.4 0.6,0.4 0.9,0.1 0.3,-0.3 0.4,-0.9 0.3,-1.3 -0.1,-0.3 -0.5,-0.4 -0.9,-0.1 m -55.7,8.1 c 1.5,0.5 3,0 3.3,-1.1 0.4,-1.2 -0.6,-2.7 -2.1,-3.3 -1.6,-0.6 -3.2,-0.1 -3.5,1.1 -0.3,1.3 0.7,2.8 2.3,3.3 m 44.9,-19.3 c -0.5,2.8 0.1,4.1 1,5.3 0.1,0 0.2,0.1 0.3,0.2 0,0 0,0 0,0 1.5,1.4 2.8,1.3 4.4,-0.3 0.5,-0.5 1.1,-0.5 1.5,0.1 0.4,0.6 0.3,1.7 -0.1,2.5 -0.5,0.7 -1.1,0.8 -1.6,0.3 -1.6,-1.2 -2.4,-1.3 -4.5,-0.1 -0.3,0.2 -0.7,0.2 -1,0 -0.4,-0.3 -0.5,-0.9 -0.4,-1.4 v 0 c 0,0 0,-0.1 0,-0.1 0.3,-1.7 0,-3.6 -1.8,-5.4 -0.7,-0.5 -1,-1.8 -0.7,-2.8000001 0.3,-1.2 1.3,-1.7 2.1,-1.2 0.7,0.4 1,1.4 0.9,2.4000001 v 0 c 0,0.2 0,0.3 -0.1,0.5 z m -18.8,0.4 c -2.2,0.4 -4.9,-0.9 -5.7,-3.5000001 0,-0.1 -0.1,-0.2 -0.1,-0.3 v 0 c 0,-0.1 -0.1,-0.2 -0.1,-0.4 -0.7,-1.6 -2.2,-2.6 -3.4,-2.1 -1.2,0.5 -1.6,2.2 -0.9,3.8 0.5,1.2 1.6,2.0000001 2.5,2.1000001 v 0 c 0,0 0.1,0 0.1,0 3.2,0.2 5.1,0.9 6.5,3.2 0.3,0.9 1,1.5 1.7,1.6 v 0 c 2.3,0.4 4.1,1.4 4.6,3 0.2,0.6 0.6,1 1.2,1 0.6,0 1.1,-0.6 1.1,-1.4 0,-0.8 -0.6,-1.5 -1.2,-1.5 0,0 -0.1,0 -0.1,0 v 0 c -0.1,0 -0.1,0 -0.2,0 -1.8,0.3 -3.7,-1.2 -3.8,-2.5 0,-0.1 0,-0.2 0.1,-0.4 0.7,-2.8 1.6,-4.3000001 4.1,-5.2000001 0.1,0 0.2,0 0.3,-0.1 v 0 c 0.7,-0.3 1.2,-1.2 1.2,-2.4 0,-1.5 -1,-2.9 -2.1,-3.1 -1,-0.1 -1.8,0.7 -1.9,2 v 0 0 c 0,0.2 0,0.3 0,0.5 -0.1,3.4 -0.6,5.1000001 -3.7,5.5000001 -0.1,0.2 -0.1,0.2 -0.2,0.2 0,0 0,0 0,0 m -9.3,8.4 z m 0,0.1 v 0 c 1.2,-0.5 3.7,-0.4 5.8,2.1 0.4,0.6 1.2,0.9 1.8,0.6 0.7,-0.3 1,-1.3 0.6,-2.2 -0.4,-0.9 -1.3,-1.4 -2,-1 0,0 -0.1,0 -0.1,0 -1.9,0.6 -4.3,-0.5 -6,-2.8 0,-0.1 -0.1,-0.1 -0.1,-0.2 v 0 c -0.6,-0.8 -1.6,-1.2 -2.4,-0.9 v 0 0 c -0.1,0 -0.2,0.1 -0.2,0.1 -3.5,1.5 -5.3,0.9 -7.1,-1.5 -0.2,-0.4 -0.5,-0.7 -0.9,-1 -1.4,-1.1 -3.2,-1.2 -4,-0.1 -0.8,1.1 -0.3,2.9 1.2,4 0.8,0.6 1.8,0.9 2.6,0.7 v 0 c 0.1,0 0.2,0 0.3,-0.1 1.8,-0.4 5.7,-1.2 7.5,1.2 0,0 0,0.1 0.1,0.1 0.1,0.1 0.1,0.2 0.2,0.2 v 0 c 1.6,3.1 1,5 -0.3,7.3 0,0.1 -0.1,0.1 -0.1,0.2 -0.3,0.8 0.1,1.7 1,2.2 0.9,0.4 1.8,0.1 2.2,-0.6 0.2,-0.5 0.1,-1.1 -0.2,-1.5 -1.9,-2.7 -1.3,-6.2 0.1,-6.8 m -17.1,2.8 c 1.4,0.9 3.1,0.7 3.7,-0.4 0.6,-1.1 0,-2.8 -1.4,-3.7 -1.5,-1 -3.2,-0.8 -3.9,0.4 -0.6,1.1 0.1,2.8 1.6,3.7"
   id="path875" />
	<path
   class="st1"
   d="m 28.416339,67.751601 c 0.7,-1.6 0.4,-3.3 -0.8,-3.8 -1.1,-0.6 -2.7,0.2 -3.5,1.7 -0.8,1.6 -0.5,3.4 0.7,4 1.2,0.6 2.8,-0.3 3.6,-1.9 m -12.1,-9.4 c 1.2,-1.1 1.6,-2.8 0.9,-3.7 -0.7,-0.9 -2.2,-0.8 -3.5,0.2 -1.2,1.1 -1.7,2.8 -1,3.7 0.8,1.1 2.4,1 3.6,-0.2 m -6.2,-12 c 1.3,-0.5 2.2,-1.8 2,-2.8 -0.2,-1 -1.4,-1.4 -2.6,-0.9 -1.3,0.5 -2.3,1.7 -2.1,2.8 0.2,1.1 1.4,1.5 2.7,0.9 m -0.2,-11.7 c 1,-0.1 2,-0.8 2.2,-1.5 0.2,-0.8 -0.4,-1.3 -1.4,-1.3 -1,0.1 -2,0.7 -2.2,1.5 -0.3,0.8 0.3,1.4 1.4,1.3 m 2.8,-9.2 c 0.7,0.2 1.6,-0.1 1.9,-0.6 0.4,-0.5 0.1,-1 -0.5,-1.2 -0.7,-0.2 -1.5,0.1 -1.9,0.6 -0.5,0.4 -0.2,1 0.5,1.2 m 27.8,36.1 c -0.2,-1.3 -1.1,-2.2 -2.1,-2 -1,0.1 -1.8,1.2 -1.7,2.5 0.2,1.3 1.1,2.3 2.2,2.1 1,-0.1 1.8,-1.3 1.6,-2.6 m -14.2,-4.7 c 0.8,-1 0.7,-2.3 -0.1,-2.9 -0.8,-0.6 -2,-0.3 -2.8,0.7 -0.8,1 -0.8,2.3 0,3 0.8,0.6 2.1,0.3 2.9,-0.8 m -8,-8.2 c 1,-0.6 1.5,-1.8 1.1,-2.6 -0.4,-0.8 -1.5,-0.9 -2.5,-0.3 -1,0.6 -1.5,1.7 -1.1,2.5 0.3,0.9 1.4,1.1 2.5,0.4 m -2.4,-4.9 c 1,-0.4 1.6,-1.3 1.4,-2.1 -0.2,-0.7 -1.1,-1 -2,-0.7 -0.9,0.4 -1.6,1.3 -1.4,2.1 0.1,0.8 1,1.1 2,0.7 m -0.9,-4.9 c 0.9,-0.2 1.6,-0.9 1.6,-1.6 0,-0.7 -0.7,-1.1 -1.6,-0.9 -0.9,0.2 -1.6,0.9 -1.6,1.6 0,0.7 0.7,1.1 1.6,0.9 m 19.1,14.2 c 0.4,-0.9 0.1,-1.8 -0.6,-2.2 -0.7,-0.3 -1.7,0.1 -2.1,0.9 -0.4,0.9 -0.2,1.9 0.6,2.2 0.7,0.4 1.7,0 2.1,-0.9 m -8.2,-4.4 c 0.7,-0.6 0.8,-1.6 0.3,-2.2 -0.5,-0.6 -1.5,-0.5 -2.2,0.1 -0.7,0.6 -0.9,1.6 -0.4,2.2 0.6,0.6 1.6,0.5 2.3,-0.1 m -5.7,-6.9 c 0.7,-0.3 1.1,-1 1,-1.6 -0.2,-0.6 -0.9,-0.8 -1.6,-0.5 -0.7,0.3 -1.2,1 -1,1.6 0.2,0.6 0.9,0.8 1.6,0.5 m -6.2,-19.6 c 0.5,0.1 1,-0.1 1.3,-0.4 0.2,-0.3 0.1,-0.7 -0.4,-0.8 -0.4,-0.1 -1,0.1 -1.3,0.4 -0.2,0.3 0,0.7 0.4,0.8 m 34.3,44.7 c -0.3,-1.6 -1.4,-2.6 -2.6,-2.4 -1.2,0.3 -2,1.8 -1.8,3.4 0.2,1.7 1.4,2.8 2.7,2.5 1.2,-0.2 1.9,-1.8 1.7,-3.5 m -38.8,-29.8 c 2.7,-0.9 3.5,-2.1 4.1,-3.4 0,-0.1 0,-0.2 0,-0.3 0,0 0,0 0,-0.1 0.5,-2 -0.2,-3.1 -2.4,-3.7 -0.7,-0.2 -1,-0.7 -0.7,-1.4 0.4,-0.7 1.4,-1.1 2.2,-1.1 0.8,0.1 1.2,0.6 1,1.2 -0.3,2 0,2.7 2.1,3.9 0.4,0.2 0.5,0.5 0.5,0.9 -0.1,0.5 -0.5,0.9 -1,1.1 v 0 c 0,0 -0.1,0 -0.1,0 -1.6,0.6 -3.1,1.8 -3.8,4.2 -0.1,0.8 -1.1,1.7 -2.2,2 -1.2,0.3 -2.1,-0.3 -2,-1.2 0.1,-0.8 0.8,-1.5 1.7,-1.9 v 0 c 0.2,-0.1 0.4,-0.2 0.6,-0.2 z m 9.6,16.2 c 1.4,1.7 1.6,4.8 -0.2,6.7 -0.1,0.1 -0.2,0.1 -0.2,0.2 -0.1,0.1 -0.2,0.2 -0.3,0.3 -1.1,1.4 -1.2,3.2 -0.2,4 1,0.8 2.7,0.3 3.7,-1.1 0.8,-1.1 1,-2.3 0.6,-3.2 v 0 c 0,0 0,-0.1 -0.1,-0.1 -1.4,-2.9 -1.7,-4.9 -0.4,-7.2 0.6,-0.7 0.8,-1.6 0.6,-2.3 v 0 c -0.8,-2.2 -0.8,-4.3 0.4,-5.5 0.4,-0.4 0.6,-1.1 0.3,-1.5 -0.3,-0.6 -1.1,-0.7 -1.8,-0.3 -0.7,0.4 -1,1.2 -0.7,1.8 0,0 0,0.1 0.1,0.1 v 0 c 0,0.1 0.1,0.1 0.1,0.1 1.2,1.4 0.8,3.8 -0.3,4.5 -0.1,0 -0.2,0.1 -0.4,0.1 -2.7,0.8 -4.6,0.7 -6.5,-1.1 -0.1,-0.1 -0.1,-0.1 -0.2,-0.2 v 0 c -0.6,-0.5 -1.7,-0.5 -2.7,0.1 -1.3,0.8 -2.1,2.3 -1.7,3.3 0.4,0.9 1.5,1.2 2.7,0.7 v 0 0 c 0.2,-0.1 0.3,-0.1 0.5,-0.2 3,-1.5 4.7,-2 6.6,0.5 0,0.2 0,0.2 0.1,0.3 -0.1,0 -0.1,0 0,0 m 11.8,4.1 z m 0,-0.1 v 0 c -1.1,-0.8 -2.1,-3.1 -1,-6.1 0.3,-0.7 0.2,-1.5 -0.4,-1.9 -0.6,-0.5 -1.6,-0.2 -2.2,0.5 -0.6,0.8 -0.6,1.8 0.1,2.3 0,0 0,0 0.1,0 1.5,1.3 1.6,4 0.5,6.6 0,0.1 -0.1,0.1 -0.1,0.2 v 0 c -0.4,1 -0.3,2 0.4,2.5 v 0 c 0.1,0.1 0.1,0.1 0.2,0.1 3,2.3 3.4,4.2 2.1,7 -0.2,0.4 -0.4,0.8 -0.5,1.3 -0.3,1.8 0.5,3.4 1.9,3.6 1.4,0.2 2.7,-1.2 2.9,-3 0.1,-1 -0.1,-2 -0.6,-2.6 v 0 c -0.1,-0.1 -0.1,-0.2 -0.2,-0.2 -1.2,-1.4 -3.8,-4.4 -2.6,-7.1 0,0 0,-0.1 0.1,-0.1 0,-0.1 0.1,-0.2 0.1,-0.3 1.9,-2.9 3.9,-3.3 6.5,-3.3 0.1,0 0.1,0 0.2,0 0.8,-0.1 1.5,-0.9 1.4,-1.9 -0.1,-1 -0.8,-1.7 -1.6,-1.6 -0.5,0 -1,0.4 -1.2,0.9 -1.5,2.9 -4.9,4.1 -6.1,3.1 m 10.8,13.5 c 0.1,-1.7 -0.9,-3 -2.2,-3 -1.3,0 -2.4,1.4 -2.6,3.1 -0.1,1.8 0.9,3.2 2.2,3.2 1.4,0 2.6,-1.5 2.6,-3.3"
   id="path877" />
	
	
<circle
   style="fill:#c22047;fill-opacity:1;stroke-width:0.794544"
   id="path1549"
   cx="58.818909"
   cy="43.163605"
   r="16.571123" /></g>
</svg>
