<?xml version="1.0" standalone="no"?>
<!DOCTYPE svg PUBLIC "-//W3C//DTD SVG 20010904//EN"
 "http://www.w3.org/TR/2001/REC-SVG-20010904/DTD/svg10.dtd">
<svg version="1.0" xmlns="http://www.w3.org/2000/svg"
 width="700.000000pt" height="700.000000pt" viewBox="0 0 700.000000 700.000000"
 preserveAspectRatio="xMidYMid meet">
<metadata>
Created by potrace 1.14, written by Peter Selinger 2001-2017
</metadata>
<g transform="translate(0.000000,700.000000) scale(0.100000,-0.100000)"
fill="#000000" stroke="none">
<path d="M4015 6761 c-65 -40 -91 -102 -95 -221 -9 -332 -73 -446 -278 -494
-32 -7 -68 -18 -80 -25 -26 -14 -116 -14 -184 0 -84 18 -181 74 -243 141 -62
66 -82 102 -114 199 -38 115 -111 204 -197 238 -137 54 -257 -53 -248 -221 7
-109 67 -222 148 -277 60 -41 61 -41 201 -55 205 -22 332 -73 435 -176 36 -36
80 -92 97 -125 51 -98 82 -121 202 -150 204 -51 319 -129 379 -256 33 -71 70
-109 108 -109 56 0 96 40 109 112 8 40 -20 113 -51 139 -9 7 -59 16 -117 19
-111 8 -173 30 -241 90 -43 38 -86 122 -80 156 12 64 78 242 108 293 59 97
164 179 276 216 94 31 142 110 142 229 0 118 -47 214 -129 267 -55 34 -104 38
-148 10z"/>
<path d="M3345 6741 c-151 -91 -92 -413 91 -502 165 -80 295 124 214 336 -55
141 -209 225 -305 166z"/>
<path d="M4613 6591 c-55 -34 -89 -110 -97 -216 -3 -32 20 -110 45 -155 32
-57 96 -94 149 -87 50 6 83 32 114 87 105 190 -53 467 -211 371z"/>
<path d="M5120 6321 c-74 -39 -109 -180 -71 -282 11 -29 44 -76 80 -116 71
-77 126 -180 145 -273 13 -65 13 -90 2 -207 -6 -68 2 -101 34 -133 28 -28 55
-25 123 11 162 85 244 81 381 -16 59 -43 95 -45 135 -7 83 76 73 276 -14 298
-35 9 -55 -1 -120 -56 -139 -118 -238 -121 -369 -12 -133 110 -180 299 -131
522 3 14 6 53 7 86 2 76 -31 148 -81 181 -41 28 -75 29 -121 4z"/>
<path d="M1968 6295 c-120 -83 -106 -300 28 -430 187 -182 417 -80 372 165
-28 155 -155 278 -296 287 -60 4 -71 2 -104 -22z"/>
<path d="M4038 6035 c-63 -35 -88 -166 -47 -255 87 -192 281 -135 274 81 -4
135 -126 228 -227 174z"/>
<path d="M5547 5984 c-17 -9 -38 -36 -53 -67 -66 -143 11 -319 119 -273 112
46 131 287 27 341 -36 19 -57 18 -93 -1z"/>
<path d="M4552 5957 c-13 -7 -33 -29 -44 -48 -32 -49 -31 -158 1 -215 56 -100
157 -97 206 7 65 141 -48 319 -163 256z"/>
<path d="M1423 5929 c-84 -20 -146 -124 -128 -216 25 -135 164 -268 303 -289
23 -3 63 -1 90 6 194 50 414 59 533 21 142 -45 226 -137 279 -306 47 -150 32
-281 -52 -455 -71 -147 -70 -201 6 -268 103 -91 256 -40 256 85 0 16 -16 56
-36 89 -73 120 -102 219 -102 342 0 95 17 167 56 224 28 44 62 65 119 75 163
28 335 -45 475 -202 64 -71 121 -92 180 -64 63 29 88 135 49 209 -45 86 -105
112 -201 87 -174 -46 -387 50 -531 240 -57 75 -75 92 -127 115 -52 24 -100 21
-168 -9 -265 -114 -460 -77 -611 117 -128 165 -255 230 -390 199z"/>
<path d="M2967 5827 c-34 -32 -57 -87 -57 -138 0 -54 31 -131 71 -174 48 -52
93 -69 162 -62 42 4 56 10 78 37 33 39 47 91 43 154 -10 124 -100 216 -213
216 -42 0 -55 -5 -84 -33z"/>
<path d="M4981 5767 c-32 -16 -60 -72 -67 -134 -16 -127 107 -209 181 -122 31
38 45 87 39 141 -12 102 -80 153 -153 115z"/>
<path d="M4510 5490 c-47 -11 -77 -98 -58 -166 27 -100 135 -113 176 -21 43
98 -27 210 -118 187z"/>
<path d="M3690 5417 c-13 -7 -35 -28 -48 -47 -21 -30 -23 -43 -19 -98 12 -159
168 -213 239 -82 15 26 18 47 14 83 -12 113 -105 185 -186 144z"/>
<path d="M1041 5387 c-50 -19 -99 -74 -109 -121 -23 -118 52 -247 188 -320 75
-41 179 -48 244 -17 123 60 126 238 7 360 -88 91 -234 134 -330 98z"/>
<path d="M6127 5266 c-71 -71 -59 -226 17 -226 30 0 72 33 92 72 23 45 22 135
-3 159 -34 35 -68 33 -106 -5z"/>
<path d="M713 5093 c-65 -33 -30 -104 47 -96 69 8 110 61 75 97 -21 20 -80 20
-122 -1z"/>
<path d="M2922 5007 c-48 -22 -77 -122 -56 -190 28 -91 140 -142 212 -97 83
51 90 152 16 239 -46 55 -117 75 -172 48z"/>
<path d="M6310 4988 c-24 -39 -23 -106 1 -121 25 -16 68 0 81 31 15 37 18 94
6 110 -6 6 -23 12 -39 12 -22 0 -34 -8 -49 -32z"/>
<path d="M1836 4968 c-107 -61 -105 -194 2 -288 90 -80 207 -87 293 -18 45 36
59 118 31 181 -53 121 -222 185 -326 125z"/>
<path d="M632 4851 c-52 -20 -102 -65 -102 -92 0 -25 46 -68 74 -70 113 -8
186 32 186 102 0 55 -86 88 -158 60z"/>
<path d="M1055 4679 c-106 -24 -158 -87 -150 -182 17 -193 284 -329 454 -230
110 64 101 218 -20 327 -77 70 -196 106 -284 85z"/>
<path d="M4888 4586 c-1 -2 -47 -6 -101 -10 -442 -28 -878 -273 -1143 -641
-125 -174 -232 -428 -260 -613 -3 -20 -7 -44 -9 -52 -9 -30 -18 -147 -18 -225
0 -79 11 -244 18 -255 2 -3 6 -23 9 -45 12 -72 36 -159 73 -255 136 -359 404
-660 739 -829 147 -74 264 -114 429 -147 128 -26 483 -25 557 1 7 2 24 6 38 9
94 15 254 70 358 121 93 46 241 141 307 196 48 41 170 162 205 204 32 37 121
162 136 190 6 11 25 45 42 75 118 212 183 486 177 745 -4 201 -21 305 -76 469
-47 143 -150 342 -229 440 -176 221 -342 356 -574 466 -189 90 -361 136 -551
146 -55 3 -105 7 -112 9 -6 2 -13 2 -15 1z"/>
<path d="M519 4526 c-83 -26 -144 -93 -134 -147 6 -34 46 -65 107 -83 96 -28
163 -82 195 -156 10 -25 10 -113 -1 -183 -22 -141 -174 -280 -379 -347 -131
-43 -218 -125 -219 -209 0 -45 18 -74 62 -95 112 -54 305 58 335 194 4 19 20
61 36 94 63 129 159 219 292 273 71 28 98 50 113 90 19 51 1 84 -71 128 -80
49 -137 107 -157 160 -14 38 -16 109 -5 185 7 50 -8 79 -48 95 -40 17 -75 18
-126 1z"/>
<path d="M314 4060 c-98 -49 -140 -139 -92 -195 75 -86 309 2 322 122 11 96
-109 134 -230 73z"/>
<path d="M810 3670 c-77 -22 -134 -77 -143 -138 -4 -27 0 -39 21 -62 33 -36
78 -43 141 -24 60 18 96 46 120 92 22 45 13 94 -22 116 -28 18 -84 26 -117 16z"/>
<path d="M1255 3364 c-22 -7 -55 -29 -73 -49 -28 -30 -33 -42 -30 -77 4 -60
43 -85 124 -79 31 2 103 68 112 104 11 40 -1 78 -31 96 -31 20 -57 21 -102 5z"/>
<path d="M820 3229 c-76 -45 -110 -97 -110 -166 0 -41 45 -92 82 -94 99 -6
192 43 224 118 28 65 11 124 -43 152 -36 18 -114 13 -153 -10z"/>
<path d="M355 3100 c-139 -31 -258 -156 -250 -261 10 -117 123 -157 262 -94
139 62 216 210 157 300 -27 42 -108 68 -169 55z"/>
<path d="M1434 3031 c-87 -39 -112 -127 -56 -198 88 -111 83 -304 -10 -390
-33 -31 -166 -64 -284 -70 -85 -5 -113 -2 -171 16 -72 21 -151 69 -213 128
-19 18 -49 37 -66 42 -154 43 -365 -122 -367 -286 -1 -97 61 -147 173 -140 36
2 74 9 85 15 146 80 300 134 385 135 136 3 231 -73 335 -267 54 -99 68 -244
35 -362 -24 -83 -45 -117 -140 -224 -52 -59 -83 -136 -86 -213 -3 -81 8 -118
47 -154 142 -135 410 38 426 275 5 62 2 73 -35 152 -94 200 -121 351 -87 485
15 58 35 102 95 212 34 64 35 118 1 238 -43 156 -36 294 20 377 16 24 40 61
55 82 21 32 25 47 21 80 -11 77 -79 105 -163 67z"/>
<path d="M1056 2823 c-76 -20 -171 -115 -178 -180 -5 -39 12 -96 38 -124 50
-55 158 -39 242 36 72 65 97 154 62 221 -23 42 -98 64 -164 47z"/>
<path d="M1755 2765 c-5 -2 -22 -6 -37 -9 -67 -15 -127 -101 -124 -175 8 -155
264 -121 291 38 9 55 -24 126 -63 137 -37 10 -55 12 -67 9z"/>
<path d="M2035 2476 c-39 -18 -71 -48 -91 -89 -37 -71 -24 -136 38 -188 76
-63 112 -160 111 -299 -1 -103 -23 -208 -68 -319 -28 -67 -34 -137 -16 -183 5
-14 40 -51 78 -81 159 -127 236 -240 247 -363 6 -64 -20 -174 -65 -280 -34
-78 -44 -114 -47 -171 -13 -227 167 -360 324 -240 77 58 124 160 126 275 2
101 -23 170 -87 238 -57 60 -140 174 -179 245 -54 98 -78 181 -78 267 0 104
43 189 149 298 123 125 229 168 438 180 135 7 169 24 200 98 21 50 19 95 -7
146 -35 68 -84 93 -160 81 -20 -3 -72 -60 -92 -100 -13 -25 -51 -76 -85 -113
-139 -151 -338 -225 -450 -168 -67 33 -126 129 -150 240 -17 75 -6 215 23 305
30 94 32 122 10 168 -29 61 -101 83 -169 53z"/>
<path d="M2431 2314 c-61 -27 -100 -86 -102 -156 -3 -78 40 -129 118 -141 79
-12 163 73 163 167 0 110 -84 171 -179 130z"/>
<path d="M1720 2048 c-120 -34 -202 -180 -167 -295 12 -40 68 -92 100 -94 111
-7 199 48 248 156 63 137 -43 274 -181 233z"/>
<path d="M810 2006 c-19 -7 -47 -18 -63 -24 -43 -18 -111 -92 -142 -156 -55
-112 -43 -205 33 -263 30 -23 48 -28 97 -30 77 -2 128 20 199 87 67 63 106
137 113 211 11 114 -41 180 -145 186 -32 2 -72 -3 -92 -11z"/>
<path d="M2965 1498 c-91 -32 -145 -156 -116 -265 37 -137 182 -202 272 -121
113 101 91 316 -37 378 -44 22 -73 24 -119 8z"/>
<path d="M1873 1109 c-46 -9 -115 -52 -156 -98 -101 -111 -124 -276 -54 -383
88 -134 278 -92 386 85 67 109 62 280 -8 348 -42 40 -112 60 -168 48z"/>
<path d="M3645 1036 c-44 -19 -90 -76 -115 -143 -55 -145 10 -339 129 -384
141 -54 258 56 266 251 7 187 -144 336 -280 276z"/>
<path d="M3025 722 c-51 -24 -101 -80 -134 -152 -22 -47 -26 -69 -26 -150 0
-86 3 -100 29 -148 17 -30 47 -67 68 -84 77 -61 203 -34 273 58 46 60 67 129
69 224 1 76 -2 91 -29 145 -40 79 -89 117 -157 122 -37 3 -65 -2 -93 -15z"/>
</g>
</svg>
